<?xml version="1.0" encoding="utf-8"?>
<!-- Generator: Adobe Illustrator 28.1.0, SVG Export Plug-In . SVG Version: 6.00 Build 0)  -->
<svg version="1.1" id="_レイヤー_2" xmlns="http://www.w3.org/2000/svg" xmlns:xlink="http://www.w3.org/1999/xlink" x="0px"
	 y="0px" viewBox="0 0 471.4 697" style="enable-background:new 0 0 471.4 697;" xml:space="preserve">
<style type="text/css">
	.st0{fill:#203156;}
	.st1{fill:url(#SVGID_1_);}
	.st2{fill:url(#SVGID_00000140717165318038535140000005114679190835786634_);}
	.st3{fill:url(#SVGID_00000023283288084359970420000003168276242457569976_);}
	.st4{fill:url(#SVGID_00000134238617332758873060000016442381882354660229_);}
	.st5{fill:url(#SVGID_00000101821649099363608680000012087786224039410309_);}
	.st6{fill:url(#SVGID_00000019656052806820733850000008192216760054141610_);}
	.st7{font-family:'ToppanBunkyuMidashiGothicStdN-ExtraBold-83pv-RKSJ-H';}
	.st8{font-size:40px;}
	.st9{font-size:54px;}
</style>
<g>
	<g id="_レイヤー_3">
		<polygon class="st0" points="398.7,26.5 398.7,697 237.9,606.3 77.1,697 77.1,26.5 		"/>
		
			<linearGradient id="SVGID_1_" gradientUnits="userSpaceOnUse" x1="126.7277" y1="2670.7314" x2="306.3977" y2="2086.8018" gradientTransform="matrix(1 0 0 -1 0 2635.02)">
			<stop  offset="0" style="stop-color:#E00000"/>
			<stop  offset="1" style="stop-color:#111B3A"/>
		</linearGradient>
		<path class="st1" d="M398.7,166.4v340.2c-41.5,30-92.5,47.6-147.7,47.6c-67.4,0-128.6-26.4-173.9-69.4V166.4H398.7L398.7,166.4z"
			/>
		
			<linearGradient id="SVGID_00000123439017343364520980000004706741045402532233_" gradientUnits="userSpaceOnUse" x1="247.7927" y1="2152.4175" x2="23.3227" y2="2480.4875" gradientTransform="matrix(-1 0 0 -1 358.92 2635.02)">
			<stop  offset="0" style="stop-color:#FF8800"/>
			<stop  offset="1" style="stop-color:#FFEB4F"/>
			<stop  offset="1" style="stop-color:#FFEB4F"/>
		</linearGradient>
		<path style="fill:url(#SVGID_00000123439017343364520980000004706741045402532233_);" d="M46.4,297.3
			c0-105.7,85.7-191.4,191.5-191.4s191.5,85.7,191.5,191.4S343.7,488.8,238,488.8C132.2,488.7,46.4,403,46.4,297.3L46.4,297.3z"/>
		
			<linearGradient id="SVGID_00000177480529082248929550000006259516492962904242_" gradientUnits="userSpaceOnUse" x1="364.0502" y1="2124.866" x2="108.1602" y2="2556.6758" gradientTransform="matrix(1 0 0 -1 0 2635.02)">
			<stop  offset="0" style="stop-color:#F18800"/>
			<stop  offset="0.54" style="stop-color:#FFC837"/>
			<stop  offset="0.75" style="stop-color:#FFFF71"/>
			<stop  offset="0.88" style="stop-color:#FFE354"/>
			<stop  offset="1" style="stop-color:#FFAF1D"/>
		</linearGradient>
		<path style="fill:url(#SVGID_00000177480529082248929550000006259516492962904242_);" d="M237.9,63.8
			c-129,0-233.5,104.6-233.5,233.5S109,530.8,237.9,530.8s233.5-104.5,233.5-233.5S366.8,63.8,237.9,63.8z M237.9,478.4
			c-100,0-181.1-81.1-181.1-181.1s81.1-181.1,181.1-181.1S419,197.2,419,297.3S337.9,478.4,237.9,478.4L237.9,478.4z"/>
		
			<linearGradient id="SVGID_00000163069573084057526750000005018569438568476838_" gradientUnits="userSpaceOnUse" x1="329.319" y1="2112.7739" x2="207.679" y2="2318.0439" gradientTransform="matrix(1 0 0 -1 0 2635.02)">
			<stop  offset="0" style="stop-color:#F17B00"/>
			<stop  offset="1" style="stop-color:#FFBB2A"/>
		</linearGradient>
		<path style="fill:url(#SVGID_00000163069573084057526750000005018569438568476838_);" d="M462.6,360.8l-50.1-15.6
			c-21,76.8-91.2,133.3-174.7,133.3c-62.2,0-117-31.3-149.6-79.1L46,430.5c42.2,60.6,112.4,100.3,191.8,100.3
			C344.8,530.8,435,458.9,462.6,360.8L462.6,360.8z"/>
		
			<linearGradient id="SVGID_00000025441242643871007690000006707760872519080633_" gradientUnits="userSpaceOnUse" x1="59.2325" y1="2516.4624" x2="376.5425" y2="2199.1526" gradientTransform="matrix(1 0 0 -1 0 2635.02)">
			<stop  offset="0" style="stop-color:#E16900"/>
			<stop  offset="0.74" style="stop-color:#FFEB5C"/>
			<stop  offset="0.84" style="stop-color:#FFD443"/>
			<stop  offset="0.95" style="stop-color:#FFF3A0"/>
		</linearGradient>
		<path style="fill:url(#SVGID_00000025441242643871007690000006707760872519080633_);" d="M237.9,84.1
			c-117.7,0-213.1,95.4-213.1,213.1s95.4,213.1,213.1,213.1S451,415,451,297.3S355.6,84.1,237.9,84.1L237.9,84.1z M237.9,487.4
			c-105,0-190.1-85.1-190.1-190.1s85.1-190.1,190.1-190.1S428,192.2,428,297.3S342.9,487.4,237.9,487.4L237.9,487.4z"/>
		
			<linearGradient id="SVGID_00000022518331158843682800000010574153466771783571_" gradientUnits="userSpaceOnUse" x1="99.6846" y1="2526.4126" x2="397.1746" y2="2120.4927" gradientTransform="matrix(1 0 0 -1 0 2635.02)">
			<stop  offset="0" style="stop-color:#FFEE85"/>
			<stop  offset="0" style="stop-color:#FFEE85"/>
			<stop  offset="0.14" style="stop-color:#F8BC51"/>
			<stop  offset="0.28" style="stop-color:#FEE87F"/>
			<stop  offset="0.48" style="stop-color:#F39829"/>
			<stop  offset="0.65" style="stop-color:#FCD66C"/>
			<stop  offset="1" style="stop-color:#F18B1C"/>
		</linearGradient>
		<path style="fill:url(#SVGID_00000022518331158843682800000010574153466771783571_);" d="M237.9,72.7
			c-124,0-224.5,100.5-224.5,224.5s100.5,224.5,224.5,224.5s224.5-100.5,224.5-224.5S361.9,72.7,237.9,72.7L237.9,72.7z
			 M237.9,495.3c-109.4,0-198.1-88.7-198.1-198.1s88.7-198,198.1-198S436,187.9,436,297.3S347.3,495.3,237.9,495.3z"/>
	</g>
	<g>
		<text transform="matrix(1 0 0 1 194.0616 295.817)" class="st7 st8">202４</text>
		<text transform="matrix(1 0 0 1 96.061 237.9382)" class="st7 st8">HTML5 アワード</text>
	</g>
	<text transform="matrix(1 0 0 1 111.1214 386.0736)" class="st7 st9">デザイン賞</text>
</g>
</svg>
