<?xml version="1.0" encoding="utf-8"?>
<!-- Generator: Adobe Illustrator 28.0.0, SVG Export Plug-In . SVG Version: 6.00 Build 0)  -->
<svg version="1.1" xmlns="http://www.w3.org/2000/svg" xmlns:xlink="http://www.w3.org/1999/xlink" x="0px" y="0px"
	 viewBox="0 0 841.9 595.3" style="enable-background:new 0 0 841.9 595.3;" xml:space="preserve">
<style type="text/css">
	.st0{opacity:0.4;}
	.st1{fill:#FFFFFF;}
</style>
<g id="レイヤー_1">
	<g class="st0">
		
			<image style="overflow:visible;" width="2070" height="1380" id="Hw0fFM_00000111155960108887450770000003562223301423791240_" xlink:href="586C81EE2410C885.jpg"  transform="matrix(0.415 0 0 0.4442 -9 -9)">
		</image>
	</g>
	
		<image style="overflow:visible;" width="390" height="844" xlink:href="../../../../../Downloads/digital-device-mockup/Nearby_New.png"  transform="matrix(0.2416 -0.1445 0.1445 0.2416 17 270.352)">
	</image>
	
		<image style="overflow:visible;" width="390" height="844" xlink:href="../../../../../Downloads/digital-device-mockup/Explore.png"  transform="matrix(0.2333 9.682286e-02 -9.682286e-02 0.2333 425.7185 45)">
	</image>
	
		<image style="overflow:visible;" width="1101" height="2131" xlink:href="../../../../../Downloads/Rectangle.png"  transform="matrix(0.2876 0 0 0.2876 125 -21)">
	</image>
</g>
<g id="Layer_1">
	<g>
		<path d="M530.3,205.9H714c2.9,0,5.2,2.3,5.2,5.2v183.7c0,2.9-2.3,5.2-5.2,5.2H530.3c-2.9,0-5.2-2.3-5.2-5.2V211.1
			C525.1,208.3,527.4,205.9,530.3,205.9z"/>
		<g>
			<path class="st1" d="M539.6,216.5c1.3-1.4,3.1-2.1,5.2-2.1h37.8v19.7h-32.4c-1,0-1.9,0.3-2.5,1c-0.7,0.7-1,1.5-1,2.5v62h-9v-78
				C537.6,219.6,538.3,217.9,539.6,216.5z M539.9,251.4c1.5-1.2,3.1-1.9,4.7-1.9v2.9c-0.9,0-2-0.3-3-0.9c-1.1-0.6-2-1.5-2.8-2.6
				c-0.8-1.1-1.1-2.3-1.1-3.7v-7.8h9c0,0.9,0.3,1.8,0.9,2.4c0.6,0.7,1.4,1,2.3,1h27.9v19.6h-27.9c-1,0-1.8,0.3-2.4,1
				c-0.6,0.7-0.9,1.5-0.9,2.4h-9v-7.6C537.6,254.3,538.4,252.7,539.9,251.4z"/>
			<path class="st1" d="M585.6,298.2c-0.9-0.9-1.4-2.1-1.4-3.4v-47.2c0-1.4,0.4-2.6,1.3-3.4c0.9-0.9,2-1.3,3.5-1.3h23.4
				c1.4,0,2.6,0.5,3.4,1.4c0.9,0.9,1.3,2.1,1.3,3.4v47.2c0,1.3-0.5,2.4-1.4,3.4c-0.9,0.9-2.1,1.4-3.4,1.4H589
				C587.7,299.7,586.5,299.2,585.6,298.2z M610.4,285.9c0.4-0.4,0.7-1,0.7-1.7v-26c0-0.6-0.2-1.2-0.6-1.6c-0.4-0.5-0.9-0.7-1.5-0.7
				h-16.5c-0.6,0-1.2,0.2-1.6,0.7c-0.5,0.4-0.7,1-0.7,1.7v26c0,0.6,0.2,1.2,0.6,1.6c0.4,0.5,0.9,0.7,1.6,0.7h16.5
				C609.5,286.6,610,286.4,610.4,285.9z"/>
			<path class="st1" d="M621.6,298.2c-0.9-0.9-1.4-2.1-1.4-3.4v-47.2c0-1.4,0.4-2.6,1.3-3.4c0.9-0.9,2-1.3,3.5-1.3h23.4
				c1.4,0,2.6,0.5,3.4,1.4c0.9,0.9,1.3,2.1,1.3,3.4v47.2c0,1.3-0.5,2.4-1.4,3.4c-0.9,0.9-2.1,1.4-3.4,1.4H625
				C623.7,299.7,622.6,299.2,621.6,298.2z M646.5,285.9c0.4-0.4,0.7-1,0.7-1.7v-26c0-0.6-0.2-1.2-0.6-1.6c-0.4-0.5-0.9-0.7-1.5-0.7
				h-16.5c-0.6,0-1.2,0.2-1.6,0.7c-0.5,0.4-0.7,1-0.7,1.7v26c0,0.6,0.2,1.2,0.6,1.6c0.4,0.5,0.9,0.7,1.6,0.7h16.5
				C645.5,286.6,646.1,286.4,646.5,285.9z"/>
			<path class="st1" d="M657.7,214.4h9v85.2h-9V214.4z M660,297.5c-1.4-1.4-2.1-3.1-2.1-5.1v-70.8c0-2.1,0.7-3.8,2-5.2
				c1.3-1.3,3-2,5.1-2h35.3c2,0,3.7,0.7,5.1,2.1c1.3,1.4,2,3.1,2,5.1v70.8c0,2-0.7,3.6-2.1,5.1c-1.4,1.4-3,2.1-5,2.1H665
				C663,299.7,661.4,299,660,297.5z M697.3,279.1c0.7-0.7,1-1.5,1-2.5v-39c0-0.9-0.3-1.8-0.9-2.4c-0.6-0.7-1.4-1-2.2-1h-24.7
				c-1,0-1.8,0.3-2.5,1c-0.7,0.7-1,1.5-1,2.5v39c0,0.9,0.3,1.8,0.9,2.4c0.6,0.7,1.4,1,2.2,1h24.8
				C695.9,280.1,696.7,279.7,697.3,279.1z"/>
		</g>
		<g>
			<path class="st1" d="M539.7,307.6c1.4-1.4,3.1-2.1,5.1-2.1h37.8v19.7h-32.4c-1,0-1.8,0.3-2.5,0.9c-0.7,0.6-1,1.3-1,2.3V345
				c0,1,0.3,1.8,0.9,2.4c0.6,0.6,1.4,0.9,2.3,0.9h29.8v15.6h-29.8c-1,0-1.8,0.3-2.4,0.9c-0.6,0.6-0.9,1.4-0.9,2.2v0.9
				c0,1,0.3,1.8,1,2.4c0.7,0.6,1.5,0.9,2.5,0.9h32.4v19.6h-37.8c-2,0-3.6-0.7-5.1-2.1c-1.4-1.4-2.1-3.1-2.1-5.1v-70.8
				C537.6,310.7,538.3,308.9,539.7,307.6z"/>
			<path class="st1" d="M594.4,305.5h17.5v85.2h-17.5V305.5z M596.4,307.5c1.3-1.3,3-2,5.2-2h39.9c2.1,0,3.8,0.7,5.2,2.1
				c1.3,1.4,2,3.1,2,5.1v8.3h-17.6v-2.8c0-0.9-0.3-1.7-1-2.4c-0.7-0.7-1.5-1.1-2.4-1.1h-12.3c-1,0-1.8,0.3-2.5,1
				c-0.7,0.7-1,1.5-1,2.5v2.8h-17.5v-8.3C594.4,310.6,595.1,308.9,596.4,307.5z M594.4,319.2h17.5v0.8c0,1.2,0.3,2.1,1,2.7
				c0.7,0.6,1.5,0.9,2.4,0.9h12.6c0.9,0,1.6-0.3,2.2-1c0.6-0.7,0.9-1.5,0.9-2.5v-0.9h17.6v6.2c0,2.3-0.7,4.2-2.1,5.5
				c-1.4,1.3-3.3,2-5.6,2h-25.7c-1,0-1.8,0.3-2.4,0.9c-0.6,0.6-0.9,1.4-0.9,2.5h-17.5V319.2z M625.3,333.9c-0.5-0.5-1.1-0.8-2-0.8
				v-3.4h18.5l6.6,60.9h-16.7l-5.5-54.7C626,335.1,625.7,334.4,625.3,333.9z"/>
			<path class="st1" d="M664,307.5c1.3-1.3,3-2,5.2-2h35.2c2.1,0,3.8,0.7,5.2,2.1c1.3,1.4,2,3.1,2,5.1v78h-9.1v-62
				c0-0.9-0.3-1.7-1-2.4c-0.7-0.7-1.5-1.1-2.4-1.1h-24.5c-1,0-1.9,0.3-2.5,1c-0.7,0.7-1,1.5-1,2.5v62h-9v-78
				C662.1,310.6,662.7,308.9,664,307.5z M662.1,350.3h9c0,0.9,0.3,1.7,0.9,2.4c0.6,0.7,1.3,1,2.3,1h25c0.9,0,1.7-0.3,2.3-1
				c0.6-0.7,0.9-1.5,0.9-2.3h9v26.3h-9c0-0.9-0.3-1.8-0.9-2.4c-0.6-0.7-1.4-1-2.3-1h-24.9c-1,0-1.8,0.3-2.3,1
				c-0.5,0.7-0.8,1.5-0.8,2.4h-9V350.3z"/>
		</g>
	</g>
</g>
</svg>
